<?xml version="1.0" encoding="utf-8"?>
<!-- Generator: Adobe Adobe Illustrator 29.1.0, SVG Export Plug-In . SVG Version: 6.00 Build 0)  -->
<svg version="1.1" id="Livello_1" xmlns="http://www.w3.org/2000/svg" xmlns:xlink="http://www.w3.org/1999/xlink" x="0px" y="0px"
	 width="66px" height="66px" viewBox="0 0 66 66" style="enable-background:new 0 0 66 66;" xml:space="preserve">
<style type="text/css">
	.st0{fill:none;stroke:#FFFFFF;stroke-width:2;stroke-linecap:round;stroke-linejoin:round;}
</style>
<path d="M0.3,33.1c0,18.3,14.7,33.1,32.7,33.1s32.7-14.8,32.7-33.1S51.1,0,33,0S0.3,14.8,0.3,33.1z"/>
<g id="Phone">
	<path class="st0" d="M34.5,39.8c1,0.1,3.2-1.3,4.2-1.2c1,0.1,1.9,0.5,2.6,1.2l2.3,2.4l1.4,1.5c0.9,1,0.9,2.5-0.1,3.4
		c0,0-0.1,0.1-0.1,0.1L41,50.4c-0.3,0.2-0.7,0.3-1,0.2c-12.9-3.5-21.5-15.8-19.3-28.5c0.4-2.2,1.1-4.4,2.2-6.4
		c0.1-0.2,0.3-0.3,0.6-0.3l5.9,0.2c1.4,0,2.6,1,2.7,2.4l0,1.9l0.1,3.2c0,0.9-0.3,1.9-1,2.5c-0.7,0.7-3.3,1-4,1.8l0,0
		c0.6,4.9,3.3,9.4,7.3,12.4L34.5,39.8z"/>
</g>
</svg>
