<?xml version="1.0" encoding="utf-8"?>
<!-- Generator: Adobe Adobe Illustrator 29.1.0, SVG Export Plug-In . SVG Version: 6.00 Build 0)  -->
<svg version="1.1" xmlns="http://www.w3.org/2000/svg" xmlns:xlink="http://www.w3.org/1999/xlink" x="0px" y="0px" width="800px"
	 height="800px" viewBox="0 0 800 800" style="enable-background:new 0 0 800 800;" xml:space="preserve">
<style type="text/css">
	.st0{fill:none;stroke:#000000;stroke-width:55;stroke-miterlimit:10;}
	.st1{stroke:#000000;stroke-width:55;stroke-miterlimit:10;}
	.st2{stroke:#000000;stroke-width:10;stroke-miterlimit:10;}
</style>
<g id="Layer_1">
</g>
<g id="Layer_2">
	<path class="st0" d="M50,681V119c0-38.11,30.89-69,69-69h562c38.11,0,69,30.89,69,69v562c0,38.11-30.89,69-69,69H119
		C80.89,750,50,719.11,50,681z"/>
	<path class="st0" d="M182,511V289c0-16.57,13.43-30,30-30h376c16.57,0,30,13.43,30,30v222c0,16.57-13.43,30-30,30H212
		C195.43,541,182,527.57,182,511z"/>
	<path class="st1" d="M509.91,414.54L442.26,523c-0.83,1.33,0.13,3.06,1.7,3.06h135.3c1.57,0,2.53-1.73,1.7-3.06L513.3,414.54
		C512.52,413.28,510.69,413.28,509.91,414.54z"/>
	<path class="st1" d="M400.22,481.7l-29.55,42.44c-0.92,1.33,0.03,3.14,1.64,3.14h59.1c1.62,0,2.56-1.82,1.64-3.14L403.5,481.7
		C402.7,480.56,401.01,480.56,400.22,481.7z"/>
	<polygon class="st2" points="302.6,325.71 306.94,339.08 321,339.08 309.63,347.34 313.97,360.71 302.6,352.45 291.23,360.71 
		295.57,347.34 284.2,339.08 298.26,339.08 	"/>
</g>
</svg>
